<svg viewBox="0 0 128 128" xmlns="http://www.w3.org/2000/svg">
  <!-- Shrimp -->

  <!-- Body segments -->
  <path fill="#FF7F50" d="M39.6,42.6C28.7,41.2,20.8,38,18.5,31.2c7.7-0.6,15.2-2.3,22.5-4.8c10.5-4,21.8-7.3,33.5-5.5c-0.2,4.3-0.9,8.6-2.3,12.7c-1.1,3.8-2.7,7.4-4.8,10.8C58.4,42.7,48.5,43.8,39.6,42.6z"/>
  
  <!-- Eye -->
  <circle cx="45.3" cy="28.7" r="3.8" fill="#000"/>
  
  <!-- Upper tail part -->
  <path fill="#FF4500" d="M75.5,53.5l0.1-1.7c-1-0.6-2-1-3-1.5c-0.4-0.2-0.8-0.3-1.2-0.4C65,52.4,62.2,60,62,66.9c2.3-4.3,5.5-13.3,10.7-13.4L75.5,53.5z"/>
  
  <!-- Middle segment -->
  <path fill="#FF6347" d="M56.7,46.1l4.4,0.7L56,54.2C53.6,57.8,49.6,57,46,56l-21.4-5.9c-3.8,4.4-5.8,9.6-7.8,15.4c-0.1-5.8,1.6-11.4,4.7-16.2c0.7-1.4,2.2-2.1,3.7-1.9l25.8,6C51,53.4,56.7,46.1,56.7,46.1z"/>
  
  <!-- Tail segments -->
  <path fill="#FF7F50" d="M87,76.6c-5.6,2.3-8.4,8.6-9,14.8c0.5-0.3,1-0.7,1.4-1c1.7-3.6,3.9-8,6.8-9.7c0.3-1,0.5-2.1,0.7-3.1C86.9,77.3,87,77,87,76.6L87,76.6z"/>
  
  <path fill="#FF7F50" d="M86.2,70.6l0.2-2.6c-0.1-0.6-0.3-1.2-0.4-1.7c-9.1,0.5-13,9.6-13.2,17.8c2.3-4.3,5.5-13.3,10.7-13.4L86.2,70.6z"/>
  
  <path fill="#FF6347" d="M82.2,61l0.2-2.7L82,57.9c-0.2-0.3-0.4-0.6-0.5-1c-0.1-0.1-0.2-0.1-0.2-0.2c-8.7,0.8-12.4,9.7-12.6,17.7C71,70.2,74.2,61.2,79.4,61H82.2z"/>
  
  <!-- Upper body section -->
  <path fill="#FF6347" d="M77.3,21.4c5.9,1.3,11.4,3.9,16.3,7.5c2.1,1.5,4,3.2,5.8,5c-1.7,3.8-3.8,7.4-6.4,10.6c-2.5,3.3-5.4,6.3-8.8,8.8c-1.7-2.1-3.8-3.8-6.1-5.2c-2.4-1.4-5-2.5-7.8-3.1c1.9-3.3,3.5-6.9,4.6-10.5C76.2,30.1,77,25.8,77.3,21.4L77.3,21.4z"/>
  
  <!-- Middle body section -->
  <path fill="#FF4500" d="M101.3,36.1c5.4,6.6,8.9,14.6,10,23c-2.5,2.4-5.3,4.6-8.3,6.4c-3.5,2.3-7.4,4.1-11.5,5.3c-0.6-5.5-2.6-10.8-5.7-15.4c3.5-2.6,6.7-5.8,9.3-9.3C97.5,43,99.6,39.6,101.3,36.1L101.3,36.1z"/>
  
  <!-- Lower tail section -->
  <path fill="#FF6347" d="M111.6,62.5c0.7,9.6-2.4,19-8.6,26.3c-0.6-0.1-1.3-0.3-1.9-0.4c-3.9-0.9-7.7-2.3-11.2-4.2c0.2-0.5,0.4-1.1,0.6-1.6c0.9-2.9,1.3-6,1.2-9c3.6-0.8,8.3-2.9,12.7-5.7C106.9,66.3,109.3,64.5,111.6,62.5L111.6,62.5z"/>
  
  <!-- Tail fin -->
  <path fill="#FF7F50" d="M100.8,91c-5.2,5.3-12.2,9.6-21,13c-4.2,3.1-9,4.5-12.8,4.1c-9.5-1-9.5-13.6-0.4-13.9c2.8-0.1,6.5,0.7,11.4,2.6c4.4-2.4,8.1-5.9,10.6-10.2c3.7,2,7.7,3.5,11.8,4.4L100.8,91L100.8,91z"/>
  
  <!-- Basketball -->
  <circle cx="38.8" cy="81" r="20" fill="#e67e22" stroke="#333" stroke-width="1.5"/>
  <line x1="38.8" y1="61" x2="38.8" y2="101" stroke="#333" stroke-width="1.5"></line>
  <line x1="18.8" y1="81" x2="58.8" y2="81" stroke="#333" stroke-width="1.5"></line>
  <path d="M20.8,71c12,6.7,24,6.7,36,0" fill="none" stroke="#333" stroke-width="1.5"/>
  <path d="M20.8,91c12-6.7,24-6.7,36,0" fill="none" stroke="#333" stroke-width="1.5"/>
  
</svg>
